<svg width="162" height="161" viewBox="0 0 162 161" fill="none" xmlns="http://www.w3.org/2000/svg">
    <path d="M138.857 0C151.622 0 162 10.2961 162 23V138C162 150.686 151.622 161 138.857 161H23.1429C10.36 161 0 150.686 0 138V23C0 10.2961 10.36 0 23.1429 0H138.857ZM122.874 64.6156C126.816 60.6984 126.816 54.3016 122.874 50.3844C118.933 46.4672 112.496 46.4672 108.554 50.3844L69.4286 89.2687L53.4455 73.3844C49.504 69.4672 43.0674 69.4672 39.1259 73.3844C35.1735 77.3016 35.1735 83.6984 39.1259 87.6156L62.2687 110.616C66.2103 114.533 72.6469 114.533 76.5884 110.616L122.874 64.6156Z"
          fill="#AEC434"/>
</svg>
