<svg width="71" height="71" viewBox="0 0 71 71" fill="none" xmlns="http://www.w3.org/2000/svg">
    <path d="M8.87504 41.4166H14.7917V62.1249C14.7917 62.9095 15.1034 63.662 15.6582 64.2168C16.213 64.7716 16.9654 65.0832 17.75 65.0832H53.25C54.0346 65.0832 54.7871 64.7716 55.3419 64.2168C55.8967 63.662 56.2084 62.9095 56.2084 62.1249V41.4166H62.125C62.6968 41.4171 63.2563 41.2516 63.7358 40.9402C64.2153 40.6287 64.594 40.1848 64.826 39.6623C65.0596 39.14 65.1364 38.5611 65.0472 37.996C64.9579 37.4309 64.7063 36.9039 64.3231 36.4791L37.6981 6.89579C36.5769 5.64737 34.4232 5.64737 33.302 6.89579L6.677 36.4791C6.29446 36.9041 6.04329 37.4309 5.95387 37.9957C5.86446 38.5604 5.94064 39.139 6.17319 39.6614C6.40574 40.1838 6.7847 40.6276 7.26421 40.9391C7.74372 41.2506 8.30323 41.4164 8.87504 41.4166ZM25.5985 34.4379C26.8298 33.2222 28.4905 32.5405 30.2209 32.5405C31.9512 32.5405 33.6119 33.2222 34.8433 34.4379L35.506 35.0887L36.1657 34.4379C37.3975 33.222 39.0587 32.5403 40.7895 32.5403C42.5204 32.5403 44.1816 33.222 45.4134 34.4379C46.0245 35.0258 46.5107 35.731 46.8428 36.5113C47.1749 37.2916 47.3461 38.1309 47.3461 38.9789C47.3461 39.8269 47.1749 40.6662 46.8428 41.4465C46.5107 42.2268 46.0245 42.932 45.4134 43.52L35.506 53.2499L25.5985 43.52C24.9874 42.932 24.5012 42.2268 24.1691 41.4465C23.837 40.6662 23.6659 39.8269 23.6659 38.9789C23.6659 38.1309 23.837 37.2916 24.1691 36.5113C24.5012 35.731 24.9874 35.0258 25.5985 34.4379Z"
          fill="black"/>
</svg>
